<svg version="1.1" xmlns="http://www.w3.org/2000/svg" xmlns:xlink="http://www.w3.org/1999/xlink" width="412" height="594.75" viewBox="0 0 412 594.75"><defs/><g><path fill="#FFFFFF" stroke="#000000" paint-order="fill stroke markers" d=" M 75.45689392089844 129.40948486328125 L 75.45689392089844 132.56463623046875 L 77.03448486328125 135.71981811523438 L 77.03448486328125 137.29739379882812 L 80.18965148925781 140.45257568359375 L 83.3448257446289 145.18533325195312 L 86.5 153.07327270507812 L 92.81034088134766 160.96121215820312 L 100.69827270507812 168.84912109375 L 107.00862121582031 173.58187866210938 L 110.16378784179688 181.46981811523438 L 111.74137878417969 184.625 L 114.89654541015625 187.7801513671875 L 114.89654541015625 192.512939453125 L 114.89654541015625 194.09051513671875 L 114.89654541015625 195.6680908203125 L 116.47413635253906 197.24569702148438 L 118.05171966552734 197.24569702148438 L 119.62931060791016 197.24569702148438 L 122.78447723388672 198.82327270507812 L 127.51724243164062 198.82327270507812 L 132.25 198.82327270507812 L 135.40516662597656 198.82327270507812 L 136.98275756835938 198.82327270507812 L 141.71551513671875 200.40084838867188 L 143.29310607910156 200.40084838867188 L 143.29310607910156 203.5560302734375 L 140.13792419433594 208.28878784179688 L 133.82757568359375 217.75430297851562 L 132.25 219.33187866210938 L 127.51724243164062 225.64224243164062 L 121.20689392089844 235.10775756835938 L 113.31896209716797 246.15084838867188 L 105.4310302734375 257.1939697265625 L 95.96551513671875 269.81463623046875 L 89.65516662597656 280.8577575683594 L 81.76724243164062 295.0560302734375 L 77.03448486328125 307.6767272949219 L 72.30171966552734 325.0301513671875 L 70.72413635253906 347.1163635253906 L 70.72413635253906 370.7801513671875 L 75.45689392089844 389.711181640625 L 83.3448257446289 408.6422119140625 L 88.07758331298828 413.375 L 89.65516662597656 413.375 L 89.65516662597656 414.95257568359375 L 91.23275756835938 416.5301513671875 L 91.23275756835938 418.10772705078125 L 91.23275756835938 419.685302734375 L 92.81034088134766 421.262939453125 L 95.96551513671875 421.262939453125 L 100.69827270507812 421.262939453125 L 107.00862121582031 418.10772705078125 L 116.47413635253906 410.21978759765625 L 125.93965148925781 402.3319091796875 L 140.13792419433594 392.86639404296875 L 155.91378784179688 386.5560302734375 L 173.26724243164062 378.6680908203125 L 187.46551513671875 373.9353332519531 L 204.81895446777344 370.7801513671875 L 225.32757568359375 364.4698181152344 L 244.2586212158203 355.0043029785156 L 261.612060546875 347.1163635253906 L 264.7672424316406 342.38360595703125 L 266.3448181152344 342.38360595703125 L 266.3448181152344 340.8060302734375 L 266.3448181152344 336.0732727050781 L 266.3448181152344 334.49566650390625 L 267.9223937988281 331.34051513671875 L 272.6551513671875 326.6077575683594 L 272.6551513671875 325.0301513671875 L 274.2327575683594 320.2973937988281 L 274.2327575683594 307.6767272949219 L 275.8103332519531 298.2112121582031 L 275.8103332519531 287.1680908203125 L 275.8103332519531 274.5473937988281 L 275.8103332519531 265.0818786621094 L 275.8103332519531 266.65948486328125 L 277.387939453125 269.81463623046875 L 277.387939453125 271.3922424316406 L 277.387939453125 269.81463623046875 L 278.96551513671875 266.65948486328125 L 278.96551513671875 260.34912109375 L 278.96551513671875 257.1939697265625 L 280.5430908203125 252.46121215820312 L 280.5430908203125 244.57327270507812 L 280.5430908203125 231.95257568359375 L 280.5430908203125 220.90948486328125 L 280.5430908203125 209.86636352539062 L 280.5430908203125 201.97845458984375 L 280.5430908203125 198.82327270507812 L 277.387939453125 194.09051513671875 L 274.2327575683594 192.512939453125 L 269.5 190.93533325195312 L 255.30172729492188 187.7801513671875 L 237.94827270507812 184.625 L 225.32757568359375 183.04739379882812 L 212.70689392089844 181.46981811523438 L 204.81895446777344 181.46981811523438 L 193.77586364746094 181.46981811523438 L 187.46551513671875 181.46981811523438 L 181.15516662597656 181.46981811523438 L 171.6896514892578 181.46981811523438 L 163.80172729492188 179.89224243164062 L 155.91378784179688 176.737060546875 L 149.6034393310547 173.58187866210938 L 141.71551513671875 170.42672729492188 L 138.5603485107422 167.27154541015625 L 136.98275756835938 167.27154541015625 L 136.98275756835938 165.6939697265625 L 136.98275756835938 164.11636352539062" stroke-linecap="round" stroke-linejoin="bevel" stroke-miterlimit="10" stroke-width="4" stroke-dasharray=""/><path fill="#FFFFFF" stroke="#000000" paint-order="fill stroke markers" d=" M 237.94827270507812 541.1594848632812 L 241.1034393310547 542.737060546875 L 250.56895446777344 544.3146362304688 L 263.18963623046875 545.8922119140625 L 282.1206970214844 545.8922119140625 L 293.1637878417969 545.8922119140625 L 308.93963623046875 545.8922119140625 L 327.8706970214844 536.4266967773438 L 343.64654541015625 528.5387573242188 L 345.22412109375 523.8060302734375 L 346.8017272949219 520.65087890625 L 348.3793029785156 514.3405151367188 L 349.9568786621094 504.875 L 349.9568786621094 498.56463623046875 L 349.9568786621094 490.67669677734375 L 349.9568786621094 484.36639404296875 L 349.9568786621094 482.78875732421875 L 349.9568786621094 479.63360595703125 L 349.9568786621094 476.47845458984375 L 346.8017272949219 473.3232421875 L 338.9137878417969 470.1680908203125 L 332.60345458984375 467.012939453125 L 323.137939453125 462.2801513671875 L 312.0948181152344 457.54742431640625 L 301.0517272949219 454.3922119140625 L 294.7413635253906 451.237060546875 L 288.4310302734375 448.0819091796875 L 285.2758483886719 446.5042724609375 L 282.1206970214844 446.5042724609375 L 278.96551513671875 446.5042724609375 L 277.387939453125 446.5042724609375 L 274.2327575683594 446.5042724609375 L 271.07757568359375 448.0819091796875 L 267.9223937988281 448.0819091796875 L 266.3448181152344 448.0819091796875 L 261.612060546875 448.0819091796875 L 256.8793029785156 448.0819091796875 L 250.56895446777344 448.0819091796875 L 244.2586212158203 448.0819091796875 L 233.21551513671875 454.3922119140625 L 226.90516662597656 460.70257568359375 L 220.59481811523438 468.59051513671875 L 214.28448486328125 478.0560302734375 L 206.39654541015625 485.9439697265625 L 201.66378784179688 492.2542724609375 L 198.5086212158203 495.40948486328125 L 196.9310302734375 493.8319091796875 L 196.9310302734375 492.2542724609375" stroke-linecap="round" stroke-linejoin="bevel" stroke-miterlimit="10" stroke-width="4" stroke-dasharray=""/></g></svg>