<svg version="1.1" xmlns="http://www.w3.org/2000/svg" xmlns:xlink="http://www.w3.org/1999/xlink" width="1376" height="404.95" viewBox="0 0 1376 404.95"><defs/><g><path fill="#FFFFFF" stroke="#000000" paint-order="fill stroke markers" d=" M 303.5 0.46875 L 303.5 4.46875 L 303.5 9.46875 L 303.5 15.46875 L 301.5 24.46875 L 300.5 33.46875 L 299.5 42.46875 L 298.5 53.46875 L 298.5 62.46875 L 298.5 70.46875 L 298.5 77.46875 L 298.5 82.46875 L 298.5 88.46875 L 298.5 91.46875 L 298.5 95.46875 L 298.5 99.46875 L 298.5 105.46875 L 298.5 108.46875 L 298.5 110.46875 L 298.5 112.46875 L 298.5 116.46875 L 298.5 121.46875 L 299.5 126.46875 L 299.5 129.46875 L 299.5 131.46875 L 300.5 133.46875 L 300.5 134.46875 L 300.5 135.46875 L 301.5 136.46875 L 302.5 137.46875 L 303.5 138.46875 L 304.5 138.46875 L 304.5 140.46875 L 305.5 140.46875 L 307.5 140.46875 L 313.5 140.46875 L 319.5 139.46875 L 323.5 138.46875 L 327.5 136.46875 L 330.5 135.46875 L 335.5 135.46875 L 339.5 135.46875 L 344.5 135.46875 L 348.5 135.46875 L 354.5 135.46875 L 358.5 135.46875 L 361.5 135.46875 L 362.5 135.46875 L 363.5 135.46875 L 370.5 135.46875 L 379.5 132.46875 L 386.5 130.46875 L 391.5 130.46875 L 398.5 128.46875 L 401.5 127.46875 L 402.5 126.46875 L 403.5 126.46875 L 407.5 125.46875 L 415.5 124.46875 L 423.5 124.46875 L 430.5 124.46875 L 432.5 124.46875 L 433.5 125.46875 L 435.5 130.46875 L 437.5 137.46875 L 441.5 146.46875 L 444.5 153.46875 L 447.5 162.46875 L 452.5 172.46875 L 456.5 183.46875 L 459.5 194.46875 L 464.5 206.46875 L 467.5 217.46875 L 470.5 226.46875 L 473.5 232.46875 L 477.5 238.46875 L 481.5 242.46875 L 483.5 247.46875 L 486.5 252.46875 L 487.5 255.46875 L 490.5 260.46875 L 493.5 264.46875 L 495.5 268.46875 L 499.5 273.46875 L 505.5 278.46875 L 511.5 282.46875 L 517.5 285.46875 L 522.5 287.46875 L 528.5 290.46875 L 535.5 292.46875 L 542.5 294.46875 L 549.5 299.46875 L 556.5 302.46875 L 566.5 305.46875 L 576.5 308.46875 L 587.5 311.46875 L 595.5 313.46875 L 602.5 314.46875 L 609.5 315.46875 L 614.5 315.46875 L 620.5 315.46875 L 624.5 316.46875 L 629.5 316.46875 L 635.5 316.46875 L 640.5 316.46875 L 649.5 316.46875 L 660.5 316.46875 L 670.5 316.46875 L 679.5 313.46875 L 690.5 309.46875 L 699.5 304.46875 L 706.5 299.46875 L 714.5 291.46875 L 718.5 285.46875 L 720.5 282.46875 L 724.5 277.46875 L 729.5 272.46875 L 734.5 266.46875 L 740.5 260.46875 L 748.5 254.46875 L 755.5 245.46875 L 764.5 236.46875 L 772.5 227.46875 L 778.5 220.46875 L 784.5 211.46875 L 788.5 204.46875 L 791.5 198.46875 L 793.5 194.46875 L 793.5 188.46875 L 793.5 185.46875 L 793.5 182.46875 L 793.5 180.46875 L 793.5 178.46875 L 786.5 173.46875 L 778.5 170.46875 L 766.5 168.46875 L 754.5 166.46875 L 737.5 165.46875 L 724.5 163.46875 L 712.5 162.46875 L 703.5 161.46875 L 699.5 161.46875 L 698.5 160.46875 L 697.5 159.46875 L 697.5 157.46875 L 695.5 154.46875 L 694.5 152.46875 L 690.5 149.46875 L 688.5 147.46875 L 688.5 145.46875 L 686.5 143.46875 L 686.5 141.46875 L 684.5 139.46875 L 683.5 136.46875 L 683.5 134.46875 L 683.5 133.46875 L 683.5 132.46875 L 683.5 130.46875 L 683.5 128.46875 L 683.5 127.46875 L 683.5 125.46875 L 683.5 124.46875 L 684.5 124.46875 L 687.5 124.46875 L 691.5 124.46875 L 697.5 123.46875 L 704.5 121.46875 L 711.5 120.46875 L 715.5 118.46875 L 716.5 118.46875 L 717.5 118.46875 L 718.5 118.46875 L 720.5 118.46875 L 728.5 119.46875 L 739.5 121.46875 L 752.5 124.46875 L 759.5 127.46875 L 759.5 128.46875 L 761.5 129.46875 L 761.5 130.46875 L 764.5 130.46875 L 772.5 130.46875 L 783.5 130.46875 L 793.5 130.46875 L 803.5 130.46875 L 812.5 130.46875 L 821.5 130.46875 L 828.5 130.46875 L 839.5 130.46875 L 851.5 130.46875 L 863.5 127.46875 L 875.5 124.46875 L 887.5 120.46875 L 898.5 114.46875 L 907.5 110.46875 L 914.5 107.46875 L 924.5 101.46875 L 930.5 96.46875 L 934.5 92.46875 L 936.5 90.46875 L 937.5 88.46875 L 938.5 85.46875 L 939.5 82.46875 L 940.5 80.46875 L 940.5 78.46875 L 940.5 76.46875 L 940.5 75.46875 L 940.5 74.46875 L 939.5 74.46875 L 934.5 73.46875 L 928.5 72.46875 L 921.5 70.46875 L 911.5 68.46875 L 901.5 66.46875 L 892.5 64.46875 L 887.5 63.46875 L 886.5 63.46875 L 884.5 61.46875 L 880.5 61.46875 L 873.5 59.46875 L 866.5 58.46875 L 858.5 56.46875 L 852.5 54.46875 L 851.5 52.46875 L 851.5 50.46875 L 851.5 49.46875 L 850.5 47.46875 L 850.5 46.46875 L 850.5 45.46875 L 850.5 43.46875 L 850.5 42.46875 L 849.5 40.46875 L 849.5 39.46875 L 849.5 37.46875 L 849.5 35.46875 L 849.5 34.46875 L 849.5 32.46875 L 849.5 30.46875 L 849.5 28.46875 L 849.5 26.46875 L 849.5 24.46875 L 849.5 22.46875 L 849.5 21.46875 L 849.5 20.46875 L 849.5 19.46875 L 849.5 16.46875 L 849.5 15.46875 L 849.5 13.46875 L 849.5 11.46875 L 849.5 10.46875 L 848.5 10.46875 L 848.5 9.46875 L 848.5 8.46875 L 848.5 7.46875 L 848.5 5.46875 L 848.5 3.46875 L 847.5 2.46875 L 847.5 1.46875 L 847.5 0.46875" stroke-linecap="round" stroke-linejoin="bevel" stroke-miterlimit="10" stroke-width="4" stroke-dasharray=""/></g></svg>